<svg width="32" height="32" viewBox="0 0 32 32" fill="none" xmlns="http://www.w3.org/2000/svg">
<circle cx="16.335" cy="16.335" r="13.335" fill="#3AC34C"/>
<path d="M21.3 22C19.8667 22 18.4696 21.6804 17.1087 21.0413C15.7473 20.4027 14.5418 19.5582 13.492 18.508C12.4418 17.4582 11.5973 16.2527 10.9587 14.8913C10.3196 13.5304 10 12.1333 10 10.7C10 10.5 10.0667 10.3333 10.2 10.2C10.3333 10.0667 10.5 10 10.7 10H13.4C13.5556 10 13.6944 10.05 13.8167 10.15C13.9389 10.25 14.0111 10.3778 14.0333 10.5333L14.4667 12.8667C14.4889 13.0222 14.4862 13.1638 14.4587 13.2913C14.4307 13.4193 14.3667 13.5333 14.2667 13.6333L12.6667 15.2667C13.1333 16.0667 13.7167 16.8167 14.4167 17.5167C15.1167 18.2167 15.8889 18.8222 16.7333 19.3333L18.3 17.7667C18.4 17.6667 18.5307 17.5916 18.692 17.5413C18.8529 17.4916 19.0111 17.4778 19.1667 17.5L21.4667 17.9667C21.6222 18 21.75 18.0749 21.85 18.1913C21.95 18.3082 22 18.4444 22 18.6V21.3C22 21.5 21.9333 21.6667 21.8 21.8C21.6667 21.9333 21.5 22 21.3 22Z" fill="white"/>
</svg>
